<svg width="16" height="16" viewBox="0 0 16 16" fill="none" xmlns="http://www.w3.org/2000/svg">
<rect width="16" height="16" rx="5" fill="url(#paint0_linear_234_85)"/>
<path d="M8.55145 7.99056C9.5644 7.99056 10.5773 7.99056 11.6103 7.99056C11.5562 8.04305 11.498 8.09952 11.403 8.15378C10.9774 8.15145 10.6401 8.29217 10.3518 8.55054C9.5139 9.30157 8.68323 10.061 7.84162 10.8078C7.12637 11.4424 6.38985 12.0525 5.68141 12.6947C5.06832 13.2505 4.48406 13.839 3.88153 14.407C3.68984 14.5877 3.48627 14.757 3.27589 14.9147C3.20297 14.9694 3.09303 14.973 3 15C3.76061 13.8598 4.51488 12.7151 5.28408 11.5809C5.79435 10.8284 6.326 10.091 6.8507 9.34306C5.91309 9.34306 4.94969 9.34306 3.93784 9.34306C5.40965 7.70054 6.85696 6.08538 8.33205 4.43921C6.56682 4.43921 4.87039 4.43921 3.12992 4.43921C3.36878 3.62785 3.60712 2.81826 3.84801 2C6.89133 2 9.91711 2 13 2C12.9154 2.10921 12.8525 2.19045 12.7606 2.2674C12.6514 2.25149 12.5674 2.21846 12.4915 2.23205C12.1952 2.28502 11.9858 2.4564 11.7988 2.70264C11.3888 3.24241 10.9257 3.74088 10.5223 4.28523C10.2277 4.68268 10.0128 5.1404 9.72774 5.5461C9.3509 6.08238 8.91999 6.57995 8.55252 7.12229C8.36845 7.39396 8.26346 7.72423 8.14998 8.03818C8.13444 8.08117 8.27096 8.23709 8.34824 8.24655C8.49835 8.26492 8.62384 8.19072 8.55145 7.99056ZM3.95837 4.10983C3.77501 4.16423 3.59166 4.21863 3.4083 4.27302C3.4499 4.33485 3.4772 4.34568 3.5045 4.3457C5.05351 4.34666 6.60251 4.34684 8.15152 4.34641C8.20093 4.3464 8.25487 4.35042 8.29842 4.33216C8.3383 4.31544 8.40048 4.25787 8.3942 4.24137C8.37608 4.19386 8.33478 4.13568 8.29079 4.12258C8.21683 4.10055 8.13359 4.10462 8.05456 4.10725C7.56942 4.12338 7.08428 4.15889 6.5993 4.15645C5.73693 4.1521 4.87467 4.12529 3.95837 4.10983ZM7.00665 9.02963C6.99111 9.01748 6.97541 8.9945 6.96006 8.99474C6.2584 9.00556 5.55667 9.01437 4.85526 9.03482C4.73246 9.0384 4.61107 9.09182 4.48903 9.12222C4.49234 9.1523 4.49566 9.18238 4.49897 9.21245C4.59133 9.22544 4.68398 9.2514 4.77602 9.24936C5.45961 9.23421 6.1432 9.21685 6.82637 9.18929C6.89359 9.18658 6.95794 9.11055 7.00665 9.02963Z" fill="#21F575"/>
<defs>
<linearGradient id="paint0_linear_234_85" x1="1.5" y1="0.5" x2="22" y2="31" gradientUnits="userSpaceOnUse">
<stop stop-color="#02401F"/>
<stop offset="1"/>
</linearGradient>
</defs>
</svg>
